<?xml version="1.0" encoding="utf-8"?>
<!-- Generator: Adobe Illustrator 27.3.1, SVG Export Plug-In . SVG Version: 6.00 Build 0)  -->
<svg version="1.1" id="Layer_1" xmlns="http://www.w3.org/2000/svg" xmlns:xlink="http://www.w3.org/1999/xlink" x="0px" y="0px"
	 viewBox="0 0 78 98" style="enable-background:new 0 0 78 98;" xml:space="preserve">
<style type="text/css">
	.st0{fill-rule:evenodd;clip-rule:evenodd;fill:#A2A9A3;}
</style>
<path class="st0" d="M53.8,27.7l-1.7,2c-0.4,0.4-1,0.4-1.4,0l-2.7-3c-0.4-0.4-1-0.4-1.4,0l-2.7,3c-0.4,0.4-1,0.4-1.4,0l-2.7-3
	c-0.4-0.4-1-0.4-1.4,0l-2.7,3c-0.4,0.4-1,0.4-1.4,0l-2.7-3c-0.4-0.4-1-0.4-1.4,0l-2.7,3c-0.4,0.4-1,0.4-1.4,0l-1.7-2
	c-0.6-0.6-1.6-0.2-1.6,0.6v41.4c0,0.9,1.1,1.3,1.6,0.6l1.7-2c0.4-0.4,1-0.4,1.4,0l2.7,3c0.4,0.4,1,0.4,1.4,0l2.7-3
	c0.4-0.4,1-0.4,1.4,0l2.7,3c0.4,0.4,1,0.4,1.4,0l2.7-3c0.4-0.4,1-0.4,1.4,0l2.7,3c0.4,0.4,1,0.4,1.4,0l2.7-3c0.4-0.4,1-0.4,1.4,0
	l1.7,2c0.6,0.6,1.6,0.2,1.6-0.6V28.3C55.4,27.5,54.3,27.1,53.8,27.7z M39.4,56.1c-1,0-1.7-0.8-1.7-1.7c0-0.9,0.7-1.7,1.7-1.7
	c1,0,1.7,0.7,1.7,1.7C41,55.3,40.3,56.1,39.4,56.1z M40.7,49.7v1.8H38v-3.8h0.7c1.6,0,2.7-0.8,2.7-2.2c0-1.3-0.8-2-1.9-2
	c-1.2,0-2,1-2,2.3h-2.9c0-2.7,2-4.8,5-4.8c2.9,0,4.9,1.6,4.9,4.4C44.4,47.7,42.8,49.4,40.7,49.7z"/>
</svg>
