<?xml version="1.0" encoding="utf-8"?>
<!-- Generator: Adobe Illustrator 27.3.1, SVG Export Plug-In . SVG Version: 6.00 Build 0)  -->
<svg version="1.1" id="Layer_1" xmlns="http://www.w3.org/2000/svg" xmlns:xlink="http://www.w3.org/1999/xlink" x="0px" y="0px"
	 viewBox="0 0 200 200" style="enable-background:new 0 0 200 200;" xml:space="preserve">
<style type="text/css">
	.st0{fill:#F8F4F0;stroke:#002140;stroke-miterlimit:10;}
	.st1{fill:#002140;}
	.st2{fill:none;stroke:#002140;stroke-linecap:round;stroke-linejoin:round;}
	.st3{fill:#A2A9A3;}
	.st4{fill:#FCFBF9;}
	.st5{fill:none;stroke:#002140;}
</style>
<path class="st0" d="M46.3,160.2l5.2-6.9l5.7,6.7l6-6.4l6.6,6.3l7.1-6.7l6.1,7l6.4-6.9l7.4,6.1v-55.3h38.6c0,0,5.5-1,5.5-9.7V31.8
	l-7.3,6.3l-5.8-7.1l-5.8,7.1l-6.6-6.7l-6.7,7l-5.5-7l-5.5,6.9l-6.6-5.8v28.8h-35c0,0-9.8,4.3-9.8,28.5V160.2L46.3,160.2z"/>
<path class="st1" d="M96.8,104.2h34.7c0,0-4.6-4.5-7.9-11.1c-3.4-6.6-11.6-31.6-17.9-31.6c-6.3,0-8.8,9.3-8.8,16.3
	C96.9,84.9,96.8,104.2,96.8,104.2L96.8,104.2z"/>
<path class="st2" d="M105.8,61.3H56c0,0-9.7,2.8-9.7,32.2L46,160.2l5.4-7l5.8,7l5.8-7l7,7l6.6-7l6.4,7l6.4-7l7.5,6.2V77.2
	C96.9,68.7,100.8,61.3,105.8,61.3c9.6,0,16.5,42.9,27.9,42.9c7.1,0,7.1-8.9,7.1-8.9V31.2"/>
<path class="st2" d="M132.9,104.2H97.1"/>
<path class="st2" d="M91.1,61.3V31.8"/>
<path class="st2" d="M91.1,31.8l6.6,6.6l5.4-7.1l5.8,7.3l6.2-7.3l6.6,7l6.3-7.4l5.7,7.5l7.2-7.1"/>
<path class="st1" d="M134.6,49.4H95.8v4.2h38.9V49.4z"/>
<path class="st1" d="M111.5,66.3l2.3,4.1h20.6v-4.2L111.5,66.3z"/>
<path class="st1" d="M118.2,79.9h16.3v4.7h-14.4"/>
<path class="st1" d="M53.9,73.7c0,0-1.9,2.4-0.9,5.2h36.7v-5.2H53.9z"/>
<path class="st1" d="M53.9,94.8c0,0-1.9,2.4-0.9,5.2h36.7v-5.2H53.9z"/>
<path class="st1" d="M53.9,116.2c0,0-1.9,2.4-0.9,5.2h36.7v-5.2H53.9z"/>
<path class="st3" d="M137.9,90L137.9,90c14.4,0,26,11.6,26,26l0,0c0,14.4-11.6,26-26,26l0,0c-14.4,0-26-11.6-26-26l0,0
	C111.9,101.6,123.5,90,137.9,90z"/>
<path class="st4" d="M140.4,120.9h-4.3V115h1.1c2.5,0,4.2-1.3,4.2-3.5c0-2.1-1.2-3.1-3-3.1c-1.9,0-3.1,1.5-3.2,3.6h-4.6
	c0-4.2,3.2-7.5,7.8-7.5c4.5,0,7.6,2.4,7.6,6.9c0,3.7-2.4,6.3-5.6,6.7V120.9z M138.3,128.1c-1.5,0-2.6-1.2-2.6-2.7
	c0-1.5,1.1-2.6,2.6-2.6c1.5,0,2.6,1.2,2.6,2.6C140.9,126.9,139.8,128.1,138.3,128.1z"/>
<path class="st5" d="M137.9,90L137.9,90c14.4,0,26,11.6,26,26l0,0c0,14.4-11.6,26-26,26l0,0c-14.4,0-26-11.6-26-26l0,0
	C111.9,101.6,123.5,90,137.9,90z"/>
</svg>
