<?xml version="1.0" encoding="utf-8"?>
<!-- Generator: Adobe Illustrator 27.3.1, SVG Export Plug-In . SVG Version: 6.00 Build 0)  -->
<svg version="1.1" id="Layer_1" xmlns="http://www.w3.org/2000/svg" xmlns:xlink="http://www.w3.org/1999/xlink" x="0px" y="0px"
	 viewBox="0 0 200 200" style="enable-background:new 0 0 200 200;" xml:space="preserve">
<style type="text/css">
	.st0{fill:#FFFAF0;}
	.st1{fill:#FEE45E;}
	.st2{fill:#FFF2B2;}
	.st3{fill:#E4BC06;}
	.st4{fill:#FBCCFF;}
	.st5{fill:#FCD407;}
	.st6{fill:none;stroke:#002140;stroke-width:0.9999;stroke-linecap:round;stroke-linejoin:round;}
	.st7{fill:#002140;}
</style>
<path class="st0" d="M63.6,61.1c0,0-6,0.3-8.1,4.3c-2.1,4-22.3,59.6-22.3,59.6l-7.8,21.2c0,0-3.2,6.2-5,6.9h127.5l13.9-4.9l4.7-12.7
	l16.2-46.7c0,0,1.4-1.7,0.4-2.9c-1-1.2-7.2-14.2-7.2-14.2l-28.6-0.3l2.1-5.7c0,0,0.1-4.6-4.7-4.9C139.7,60.7,63.6,61.1,63.6,61.1
	L63.6,61.1z"/>
<path class="st1" d="M27,143.1l-2.1,5.3l-4.1,4.9l131.8,0.3c0,0,10.6-2.2,10.8-10L27,143.1L27,143.1z"/>
<path class="st1" d="M85.5,57.7l-47.3-0.2c0,0-4.8-0.1-4.6,5l0.2,5.1l20.8-0.7c0,0,4.6-4.9,5.5-5.2c0.9-0.3,25.4-0.7,25.4-0.7
	L85.5,57.7L85.5,57.7z"/>
<path class="st1" d="M28.9,137.3l-5.6-2.1c0,0-1-3.3-3.1,1.1c-2.1,4.4,0.3,8.8,0.3,8.8l4.8,1.9L28.9,137.3L28.9,137.3z"/>
<path class="st2" d="M47.6,86.8c0,0-13-4.6-24,2.4c-10.9,7.1-14.8,20.3-11.3,30.5c3.5,10.2,11.4,17.3,16.6,17.5L47.6,86.8L47.6,86.8
	z"/>
<path class="st3" d="M45.1,93.4l1.9-6.6c0,0-13.5-4.8-24,2.7s-13.9,19.4-10.4,31.5c3.5,12.2,15.7,16.1,16.3,16.4l1.9-5.7
	c0,0-14.2-3.9-13.4-21.3c0-8.6,10.2-15.8,11.9-16.5c1.8-0.7,8.1-1.7,8.1-1.7S44.2,91.8,45.1,93.4L45.1,93.4z"/>
<path class="st3" d="M40.9,104.9l-5.3,14.6c0,0-4.1-3.4-3.8-6.7c0.3-3.3,2.9-5.6,3.3-6.1C35.6,106.2,39.7,104.8,40.9,104.9
	L40.9,104.9z"/>
<path class="st4" d="M11.2,95c0,0-0.1,0.9,0.3,1.3c0.4,0.4,3.3,2.1,3.3,2.1s4.6-6.1,6.1-7.1l-3.8-2.1c0,0-1-0.5-1.8,0.1
	C14.6,89.9,12,92.9,11.2,95L11.2,95z"/>
<path class="st5" d="M28.6,86.7l9.2-1.6l-1.8-4.6c0,0-5.1-0.9-8.8,1.9L28.6,86.7L28.6,86.7z"/>
<path class="st4" d="M18.4,130.9l-0.9,3.3l-1.8,1.3l-0.9,2.1l0.2,1.7l-0.3,1.6l1.2,2.9l0.8,0.3c0,0-1.3,2.4,0.5,3.3
	c1.8,0.9,2.9,1.5,2.9,1.5s0.7,2.3,1.9,2.4c1.2,0.1,2.4-1.9,2.4-1.9l0.4-2.9l-2.2-1.1l-1.7-3.2l-0.4-3.3l0.7-2.6l1.5-1.3L18.4,130.9
	L18.4,130.9z"/>
<path class="st4" d="M33,79.9c0,0-2.1-6.4-7.2-8.8c0,0,3.3-3.6,13.3-4.3c10-0.7,16,0.3,16,0.3l-7.5,19.8c0,0-6.2-2.1-9.7-1.8
	l-1.8-4.6L33,79.9L33,79.9z"/>
<path class="st1" d="M149.7,64.2l-0.6,2.7l-14.3,45.8l4.6-2.9l2.1,4.6l4-3.2l1.9,4l3.6-2.5l1.4,4.9l4.8-3.8l1.3,5.5l4.7-4.2l1.7,5.9
	l4.1-4.1l1.6,5.7l17.6-50.4c0,0,3.3-7.6-5.5-7.7C174,64.4,149.7,64.2,149.7,64.2L149.7,64.2z"/>
<path class="st2" d="M85.5,61h43.9c0,0,1.3-9.4,3.3-13.8c0,0-5.2,1-8.4,3.5l-3.2-4.5l-6.4,5l-5.4-4.4l-5.4,4l-4.4-3.9l-5.2,4.4
	l-4.9-4C89.4,47.3,86.5,50.4,85.5,61L85.5,61z"/>
<path class="st3" d="M16.3,146.7c0,0-1.8,4.7,1.3,5.6c3.2,0.9,4,0.4,4,0.4l0.6-1.5l-2.7-2.1L16.3,146.7L16.3,146.7z"/>
<path class="st6" d="M25.3,146.6c0,0-2,6.6-5.6,6.6c-1.1,0-1.9-0.4-2.5-1.1c0,0-1.9-1.3-0.5-6.8"/>
<path class="st6" d="M147.4,71.7l2-5.6c0,0,1.3-5-5-5h-81c0,0-6.5-0.3-9,6.6c-3,8.3-29.2,79-29.2,79"/>
<path class="st6" d="M19.7,153.3h132c0,0,8.3-0.3,11.3-8c3-7.6,23.4-67.6,25.1-72c1.8-4.4,1.1-9-6-9c-6.2-0.2-32.5,0-32.5,0"/>
<path class="st6" d="M33.7,67.6c-0.1-0.7-0.1-1.3-0.2-1.9c0,0-1.5-8.2,4.9-8.2c5.7,0,24.3,0.2,24.3,0.2h22.8"/>
<path class="st6" d="M28.6,137.5C18.3,133.6,11,123.8,11,112.2c0-14.9,12.1-27,27-27c3.2,0,6.3,0.6,9.2,1.6"/>
<path class="st6" d="M30.8,131.8c-7.8-2.9-13.4-10.5-13.4-19.4c0-11.4,9.2-20.6,20.6-20.6c2.4,0,4.7,0.4,6.9,1.2"/>
<path class="st6" d="M23.1,134.7c-1,1.5-2.8,2.1-4.2,1.3c-1.4-0.8-1.8-2.8-0.9-4.4c0.1-0.2,0.2-0.4,0.4-0.5"/>
<path class="st6" d="M21.1,136.2c0.2,0.8,0,1.7-0.5,2.5c-0.9,1.6-2.9,2.3-4.3,1.5c-1.4-0.8-1.8-2.8-0.9-4.4c0.5-0.8,1.2-1.4,2-1.7"
	/>
<path class="st6" d="M20.5,139.5c0.1,0.3,0.2,0.6,0.3,0.9c0.4,1.9-0.6,3.6-2.2,3.9c-1.6,0.3-3.2-0.9-3.6-2.8
	c-0.2-0.8-0.1-1.7,0.3-2.3"/>
<path class="st6" d="M21,142.4c0.7,0.5,1.3,1.3,1.5,2.3c0.4,1.9-0.6,3.6-2.2,4c-1.6,0.3-3.2-0.9-3.6-2.8c-0.1-0.6-0.1-1.1,0-1.6"/>
<path class="st6" d="M22.6,151.5c-0.6-0.1-1.1-0.4-1.6-0.8c-0.6-0.5-1-1.2-1.2-1.9"/>
<path class="st6" d="M22.8,145.3c0.7,0.1,1.5,0.4,2.1,0.9c0.1,0.1,0.2,0.2,0.4,0.4"/>
<path class="st6" d="M35.4,119.3c-2.1-1.4-3.4-3.7-3.4-6.4c0-4.3,3.5-7.7,7.7-7.7c0.3,0,0.6,0,0.9,0"/>
<path class="st6" d="M38.2,95.6v5.7"/>
<path class="st6" d="M20.6,113.1H27"/>
<path class="st6" d="M26.6,100.9l4,4.2"/>
<path class="st6" d="M30.2,120.4l-4.6,3.8"/>
<path class="st7" d="M33.2,108.6l-10.5-4.3l-1,2.9l10.2,4.1"/>
<path class="st6" d="M20.4,91l-3.2-2c-0.3-0.2-0.7-0.2-1.1-0.1c-1.1,0.5-3.4,2-4.9,6.2c-0.2,0.5,0,1.1,0.5,1.4l2.9,1.9"/>
<path class="st6" d="M12,93.8l3.8,2.4"/>
<path class="st6" d="M13.5,91.9l3.8,2.4"/>
<path class="st6" d="M15.1,90.2l3.8,2.4"/>
<path class="st6" d="M37.7,84.9l-1-3.7c-0.1-0.4-0.4-0.7-0.8-0.8c-1.1-0.3-3.9-0.7-7.8,1.3c-0.5,0.2-0.7,0.8-0.6,1.3l0.9,3.3"/>
<path class="st6" d="M29.5,81.4l1.3,4.3"/>
<path class="st6" d="M31.9,80.9l1.3,4.3"/>
<path class="st6" d="M34.1,80.7l1.3,4.3"/>
<path class="st6" d="M26.6,143.3h136.9"/>
<path class="st6" d="M54.5,66.9c0,0-17.1-3-29,4.1c0,0,6.5,2.7,7.2,9.1"/>
<path class="st6" d="M36.7,72.5c0,0,8.8-2.7,16.1-1"/>
<path class="st6" d="M37.5,76.9c0,0,7.2-2.2,13.9-1.4"/>
<path class="st6" d="M38.7,81.4c0,0,5.4-1.6,11.2-1.5"/>
<path class="st6" d="M147.4,71.7l-12.6,40.8"/>
<path class="st6" d="M85.5,61c0,0,0.3-8.6,3.8-14l5,4.3l5.1-4.7l4.5,4.4l5.3-4.6l5.1,4.8c0,0,6.5-5.5,6.7-5.2c0.2,0.3,3,4.6,3,4.6
	s4.6-3.5,9-3.5"/>
<path class="st6" d="M129.3,61c0,0,0.3-8.6,3.8-14"/>
<path class="st6" d="M92.6,54.4h21.5"/>
<path class="st6" d="M91.9,58.1h29.9"/>
<path class="st6" d="M144.1,103.1l25,6"/>
<path class="st6" d="M146.8,95.4l25,6"/>
<path class="st6" d="M149.3,87.7l23.9,5.6"/>
<path class="st6" d="M151.4,81.4l23.9,5.6"/>
<path class="st6" d="M153.1,75.6l23.9,5.6"/>
<path class="st6" d="M170.9,123l-1.7-6.2l-4.1,4.5l-1.6-6.1l-4.8,4.4l-1.3-6.1l-4.9,4.1l-1-5.4l-4,3.7l-1.8-5.1l-4.3,4.2l-1.8-5.6
	l-4.8,3"/>
</svg>
