<?xml version="1.0" encoding="utf-8"?>
<!-- Generator: Adobe Illustrator 27.3.1, SVG Export Plug-In . SVG Version: 6.00 Build 0)  -->
<svg version="1.1" id="Layer_1" xmlns="http://www.w3.org/2000/svg" xmlns:xlink="http://www.w3.org/1999/xlink" x="0px" y="0px"
	 viewBox="0 0 200 200" style="enable-background:new 0 0 200 200;" xml:space="preserve">
<style type="text/css">
	.st0{fill:#FFC68C;}
	.st1{fill:#FFF2B2;}
	.st2{fill:none;stroke:#722B03;stroke-linecap:round;stroke-linejoin:round;}
	.st3{fill:none;stroke:#0C1B33;stroke-linecap:round;stroke-linejoin:round;}
	.st4{fill:#722B03;stroke:#722B03;stroke-linecap:round;stroke-linejoin:round;}
	.st5{fill:#03D47C;}
	.st6{fill:#FFFAF0;}
	.st7{fill:none;stroke:#002140;}
</style>
<path class="st0" d="M53.3,37.5c27.1-3.3,32.7,13,50.1,15.8c23.9,3.9,30.4-3.1,30.4-3.3c11.8,6.4,8.7,19.9,8.7,19.9s-5,2.6-15.2,3.8
	c-3.6,0.4-7.8,0.7-12.6,0.6c-17.3-0.3-29.9-9.2-29.9-9.2S84.5,52,77.3,47.5c1.1,7.9-0.6,13.4-0.8,13.2c-4.4-0.2-7.2-2.7-7.2-2.7
	s1.3-20.4-14-20.4c-0.7,0-1.4,0-2,0.1L53.3,37.5z"/>
<path class="st1" d="M127.3,74.1c0,0-0.4,3,3.1,10.9c3.6,7.9,9.1,13.4,9.6,25.4c0.5,12-9.7,20.2-8.7,32.7c1,12.5,13.3,16,13.6,16
	c-3.9,5.8-16.9,3.6-16.9,3.6s-6.3-3.2-10.2-13.5c-2,4.8-1.8,11.7-1.8,11.7s-6.6-6.9-8.2-20.4c-3.2,10.6-0.4,18.1-0.3,20.2
	c-13.1-1-26.9-12.3-39.3-13.3c-12.4-1-22.2,2.8-22.2,2.8s-6.7-5.9-4.6-21.2c1.4-9.9,9.1-15.7,10.5-31.7c0.7-8.4-5.1-17.1-9.5-24
	c-4.3-6.9-3.3-18.6-3.3-18.6S40,39,53.3,37.6c0.7-0.1,1.3-0.1,2-0.1c15.3,0,14,20.4,14,20.4s2.7,2.6,7.2,2.7
	c0.2,0.2,1.9-5.3,0.8-13.2c7.2,4.5,7.4,17.6,7.4,17.6s12.6,8.9,29.9,9.2c4.9,0.1,9.1-0.2,12.6-0.6L127.3,74.1L127.3,74.1z"/>
<path class="st2" d="M79.6,128.1c2,0.9,4,1.7,6.1,2.2"/>
<path class="st2" d="M93.9,131.8c2.5,0.5,5.1,0.7,7.7,0.4"/>
<path class="st2" d="M108.7,131.6c2.5-0.2,4.9-0.8,7.1-1.9"/>
<path class="st2" d="M121.5,126.1c1.7-1.4,3.1-3.1,4.1-5.1"/>
<path class="st2" d="M127,107.5c0.4,2.3,0.4,4.6,0,6.9"/>
<path class="st2" d="M119.3,95.9c2,1.6,3.6,3.5,4.7,5.7"/>
<path class="st2" d="M113.1,93.4c-2.4-0.8-4.9-1.1-7.4-1"/>
<path class="st2" d="M99.3,92.2c-2.4,0.4-4.9,1.1-7.2,2"/>
<path class="st2" d="M85.5,95.1c-2.4,0.5-5,0.5-7.4-0.2"/>
<path class="st2" d="M72.5,92.6c-1.6-0.8-3-2.3-3.6-4.1"/>
<path class="st2" d="M66.8,81.4c-0.4-2.2-0.1-4.5,1.1-6.4"/>
<path class="st2" d="M71.9,70.2c1.5-1,3.1-1.6,4.9-2"/>
<path class="st2" d="M84.2,67.9c1.8,0,3.7,0.4,5.4,0.9"/>
<path class="st3" d="M53.3,37.5c27.1-3.3,32.7,13,50.1,15.8c23.9,3.9,30.4-3.1,30.4-3.3c11.8,6.4,8.7,19.9,8.7,19.9s-5,2.6-15.2,3.8
	c-3.6,0.4-7.8,0.7-12.6,0.6c-17.3-0.3-29.9-9.2-29.9-9.2S84.5,52,77.3,47.5c1.1,7.9-0.6,13.4-0.8,13.2c-4.4-0.2-7.2-2.7-7.2-2.7
	s1.3-20.4-14-20.4c-0.7,0-1.4,0-2,0.1C39.9,39,39.5,50.2,39.3,54.7C39.3,73,52,82.7,52,97.3c-1.4,16-9.1,21.8-10.5,31.7
	c-2.1,15.3,4.6,21.2,4.6,21.2s9.8-3.8,22.2-2.8c12.4,1,26.2,12.3,39.3,13.3c-0.2-2-2.9-9.5,0.3-20.2c1.6,13.5,8.2,20.4,8.2,20.4
	s-0.3-6.9,1.8-11.7c3.9,10.3,10.2,13.5,10.2,13.5s12.9,2.2,16.9-3.6c-0.3,0-12.6-3.5-13.6-16c-1-12.5,9.2-20.7,8.7-32.7
	c-0.5-12-6-17.5-9.6-25.4c-3.6-7.9-3.2-10.9-3.2-10.9"/>
<path class="st4" d="M73.2,118l-7.7,5.8l-5.9-10.1l-3.9,2.9l6,9.8l-8.3,6.4l2.8,4.9l8.6-6.7l6.1,9.8l3.9-2.7l-6-10.1l7.4-5.6
	L73.2,118z"/>
<path class="st5" d="M137.9,90L137.9,90c14.4,0,26,11.6,26,26l0,0c0,14.4-11.6,26-26,26l0,0c-14.4,0-26-11.6-26-26l0,0
	C111.9,101.6,123.5,90,137.9,90z"/>
<path class="st6" d="M139.4,110c0-0.8-0.7-1.5-1.5-1.5c-0.8,0-1.5,0.7-1.5,1.5v4.5h-4.5c-0.8,0-1.5,0.7-1.5,1.5s0.7,1.5,1.5,1.5h4.5
	v4.5c0,0.8,0.7,1.5,1.5,1.5c0.8,0,1.5-0.7,1.5-1.5v-4.5h4.5c0.8,0,1.5-0.7,1.5-1.5s-0.7-1.5-1.5-1.5h-4.5V110z"/>
<path class="st7" d="M137.9,90L137.9,90c14.4,0,26,11.6,26,26l0,0c0,14.4-11.6,26-26,26l0,0c-14.4,0-26-11.6-26-26l0,0
	C111.9,101.6,123.5,90,137.9,90z"/>
</svg>
