<?xml version="1.0" encoding="utf-8"?>
<!-- Generator: Adobe Illustrator 27.3.1, SVG Export Plug-In . SVG Version: 6.00 Build 0)  -->
<svg version="1.1" id="Layer_1" xmlns="http://www.w3.org/2000/svg" xmlns:xlink="http://www.w3.org/1999/xlink" x="0px" y="0px"
	 viewBox="0 0 200 200" style="enable-background:new 0 0 200 200;" xml:space="preserve">
<style type="text/css">
	.st0{fill:#99F6FF;stroke:#002140;stroke-linecap:round;stroke-linejoin:round;}
	.st1{fill:#50EEF7;stroke:#002140;stroke-linecap:round;stroke-linejoin:round;}
	.st2{fill:#FFFAF0;}
	.st3{fill:#FEE45E;}
	.st4{fill:none;stroke:#002140;stroke-width:0.9999;stroke-linecap:round;stroke-linejoin:round;}
	.st5{fill:#002140;}
	.st6{fill:#F8D004;}
	.st7{fill:#CA8000;}
	.st8{fill:none;stroke:#002140;stroke-linecap:round;stroke-linejoin:round;}
	.st9{fill:none;stroke:#CA8000;stroke-miterlimit:10;}
	.st10{fill:#FFE789;}
</style>
<path class="st0" d="M151.1,159H65.4V39.8h48.7h5.3l31.7,34.4V159z"/>
<path class="st1" d="M151.1,74.3h-31l-0.7-34.4L151.1,74.3z"/>
<path class="st2" d="M13.8,99.3l3.7-3.6l2,3.8l3.5-3.5l2.1,3.6l3.6-3.6l2.5,3.4l2.6-3.4l2.4,3.5l3.2-3.4l3.3,3.3
	c0,0-1.5-32.7,13.9-32.7H28.8C28.8,66.8,14,68.8,13.8,99.3L13.8,99.3z"/>
<path class="st2" d="M75.7,87.5c0,0,5,6.7,15,6c10-0.8,13-21.7,13.3-22.6s6.7-37.9,6.7-37.9s3.3-13.8,9.6-13.8L97,19
	c0,0-5.9,3-8.3,12.4C86.3,40.8,81.3,82.8,75.7,87.5L75.7,87.5z"/>
<path class="st3" d="M62.2,93.7h25c0,0-7.5-0.6-12.8-7.8c-5.3-7.1-7.3-19.1-17.7-19.1c-8.1,0-11,8.6-11,8.6s2.2,0.4,5.4,6.9
	C54.5,88.8,57.6,93.6,62.2,93.7L62.2,93.7z"/>
<path class="st3" d="M110.7,32.9l1.1,1.1l2.5-2.6l3.1,2.7l2.4-2.7l2.7,2.7l2.6-2.9l2.5,2.9l1.9-2.5l2.6,2.2c0,0-3.8-14.6-10.6-14.6
	C114.8,19.2,111.9,29.8,110.7,32.9L110.7,32.9z"/>
<path class="st4" d="M56.9,66.8H29c0,0-15.1,1.9-15.1,32.6"/>
<path class="st4" d="M121.3,19.2H97.2c0,0-6.4,1.8-9.1,14.9C84.8,48,81.2,82.7,75.8,87.6"/>
<path class="st4" d="M90,93.5H62.1c-8.3,0-12.2-18-16.2-18"/>
<path class="st4" d="M42.6,99.3C42.2,83.9,45,66.8,56.4,66.8c16.9,0,11,26.7,33.7,26.7c6.2,0,9.6-7.8,11.4-12.6
	c2.9-7.5,7.3-41.3,9.9-49.9c1.4-4.6,4.1-11.8,10-11.8C128.7,19.2,132,34,132,34"/>
<path class="st4" d="M132,34l-2.5-2.5l-1.9,2.7l-2.5-3.1l-2.6,3.2l-2.7-3l-2.5,3l-3-3l-2.5,3l-0.9-1.2"/>
<path class="st4" d="M13.9,99.4l3.5-3.8l2.1,4l3.5-3.7l2.2,3.8l3.5-3.8l2.5,3.8l2.8-3.6l2.3,3.5l3-3.5l3.4,3.4"/>
<path class="st5" d="M97.2,24L95,29.4l12.6,0l2-5.4H97.2z"/>
<path class="st5" d="M89.9,56.7l0.5-2.6h12.5l-0.5,2.6H89.9z"/>
<path class="st5" d="M85.4,77l0.7-2.5H99L98.3,77H85.4z"/>
<path class="st5" d="M80.5,88.5l1.2-2.5h12.7l-1.1,2.5H80.5z"/>
<path class="st5" d="M97.1,65.9l0.3-2.3h3.7l-0.3,2.2L97.1,65.9z"/>
<path class="st5" d="M97.7,61.7l0.3-2.3h3.7l-0.3,2.2L97.7,61.7z"/>
<path class="st5" d="M99.5,72.2l0.6-3.4H87l-0.6,3.4L99.5,72.2z"/>
<path class="st5" d="M27.1,73.5l0.9-1.5l15.8,0l-0.9,1.5H27.1z"/>
<path class="st5" d="M22.7,79.2L22.3,81l18,0l0.4-1.8H22.7z"/>
<path class="st4" d="M26.4,75.8l2.3,1.6"/>
<path class="st4" d="M28.7,75.8l-1.9,1.5"/>
<path class="st4" d="M27.6,76.5v-1.4"/>
<path class="st4" d="M30.3,75.8l2.3,1.6"/>
<path class="st4" d="M32.5,75.8l-1.9,1.5"/>
<path class="st4" d="M31.5,76.5v-1.4"/>
<path class="st4" d="M34,75.8l2.3,1.6"/>
<path class="st4" d="M36.2,75.8l-1.9,1.5"/>
<path class="st4" d="M35.2,76.5v-1.4"/>
<path class="st4" d="M37.8,75.8l2.3,1.6"/>
<path class="st4" d="M40,75.8l-1.9,1.5"/>
<path class="st4" d="M38.9,76.5v-1.4"/>
<path class="st5" d="M101.2,39.8c0.1,0,0.2,0,0.3,0c0.6,0,0.9-0.6,1-1.1c0-0.3,0.1-0.7,0.2-1.1c0.1-0.4,0-0.8-0.3-1.1
	c-0.2-0.2-0.6-0.2-0.9-0.1c0,0-0.4,0.2-0.3,0.3c0,0-0.7-0.8-1.4-0.9l0.2-1.1c0,0,0.1-0.9-0.8-1c-1-0.1-1.1,0.8-1.1,0.8l-0.2,1.1
	c0,0-3.2-0.1-3.7,3c-0.6,4.2,6.3,3.2,5.9,5.8c-0.1,0.4-0.5,1.5-2.8,1.1c-2.8-0.4-1.2-2.6-3-2.8c-1-0.1-1.3,0.6-1.4,1.1
	c-0.1,0.6-0.3,2.1-0.3,2.1s-0.1,0.8,0.8,1c0.9,0.1,1.2-0.3,1.2-0.3s0.6,0.8,1.4,0.9l-0.2,1.2c-0.1,0.8-0.4,1.9,0.7,2
	c0.9,0.1,1.1-0.6,1.2-1.3c0.1-0.6,0.2-1.1,0.3-1.7c0,0.1,1.4-0.2,1.5-0.2c1-0.3,1.8-0.9,2.3-1.9c0.5-1.1,0.7-2.5-0.1-3.5
	c-0.5-0.7-1.4-1.1-2.2-1.5c-0.8-0.3-1.6-0.5-2.4-0.9c-0.5-0.2-1.1-0.6-1-1.2c0.2-1.3,1.6-1.2,2.5-1.1c0.9,0.1,1.4,0.5,1.7,1.3
	C100.5,39.3,100.8,39.7,101.2,39.8L101.2,39.8z"/>
<path class="st5" d="M26.5,85.4c0,0,0.1,0,0.1,0c0.3,0,0.4-0.3,0.4-0.5c0-0.1,0-0.3,0.1-0.5c0-0.2,0-0.4-0.2-0.5
	c-0.1-0.1-0.3-0.1-0.4,0c0,0-0.2,0.1-0.1,0.1c0,0-0.3-0.4-0.7-0.4l0.1-0.5c0,0,0.1-0.4-0.4-0.5c-0.4-0.1-0.5,0.4-0.5,0.4l-0.1,0.5
	c0,0-1.5,0-1.7,1.4c-0.3,1.9,2.9,1.5,2.8,2.7c0,0.2-0.2,0.7-1.3,0.5c-1.3-0.2-0.5-1.2-1.4-1.3c-0.5-0.1-0.6,0.3-0.7,0.5l-0.1,1
	c0,0,0,0.4,0.4,0.4c0.4,0.1,0.6-0.1,0.6-0.1s0.3,0.4,0.7,0.4L24,89.6c-0.1,0.4-0.2,0.9,0.3,1c0.4,0.1,0.5-0.3,0.6-0.6
	c0-0.3,0.1-0.5,0.1-0.8c0,0,0.6-0.1,0.7-0.1c0.5-0.1,0.9-0.4,1.1-0.9c0.2-0.5,0.3-1.2,0-1.6c-0.2-0.3-0.6-0.5-1-0.7
	c-0.4-0.2-0.7-0.2-1.1-0.4c-0.2-0.1-0.5-0.3-0.4-0.5c0.1-0.6,0.8-0.6,1.2-0.5c0.4,0.1,0.7,0.2,0.8,0.6
	C26.2,85.1,26.3,85.3,26.5,85.4L26.5,85.4z"/>
<path class="st5" d="M34.5,85.5c0,0,0.1,0,0.1,0c0.3,0,0.4-0.3,0.4-0.5c0-0.1,0-0.3,0.1-0.5c0-0.2,0-0.4-0.2-0.5
	c-0.1-0.1-0.3-0.1-0.4,0c0,0-0.2,0.1-0.1,0.1c0,0-0.3-0.4-0.7-0.4l0.1-0.5c0,0,0.1-0.4-0.4-0.5c-0.4-0.1-0.5,0.4-0.5,0.4l-0.1,0.5
	c0,0-1.5,0-1.7,1.4c-0.3,1.9,2.9,1.5,2.8,2.7c0,0.2-0.2,0.7-1.3,0.5c-1.3-0.2-0.5-1.2-1.4-1.3c-0.5-0.1-0.6,0.3-0.7,0.5l-0.1,1
	c0,0,0,0.4,0.4,0.4c0.4,0.1,0.6-0.1,0.6-0.1s0.3,0.4,0.7,0.4l-0.1,0.6c-0.1,0.4-0.2,0.9,0.3,1c0.4,0.1,0.5-0.3,0.6-0.6
	c0-0.3,0.1-0.5,0.1-0.8c0,0,0.6-0.1,0.7-0.1c0.5-0.1,0.9-0.4,1.1-0.9c0.2-0.5,0.3-1.2,0-1.6c-0.2-0.3-0.6-0.5-1-0.7
	c-0.4-0.2-0.7-0.2-1.1-0.4c-0.2-0.1-0.5-0.3-0.4-0.5c0.1-0.6,0.8-0.6,1.2-0.5c0.4,0.1,0.7,0.2,0.8,0.6
	C34.2,85.3,34.3,85.5,34.5,85.5L34.5,85.5z"/>
<path class="st6" d="M122.3,157.1c0,0,2.8,5.8,21.9,5.2c19.1-0.6,21.3-4.3,21.3-5.5c0-1.2-8.7-5.2-20.2-5
	C133.7,151.9,122.8,153.2,122.3,157.1L122.3,157.1z"/>
<path class="st7" d="M122.6,158.1v6.4c0,0,8,4.3,22.3,4.3c14.3,0,20.7-4.6,20.7-4.6v-6.4c0,0-6.7,5-21.4,4.4
	C129.4,161.7,124.4,159.3,122.6,158.1z"/>
<path class="st8" d="M144,162c11.9,0,21.6-2.2,21.6-5c0-2.8-9.7-5-21.6-5s-21.6,2.2-21.6,5C122.5,159.8,132.1,162,144,162z"/>
<path class="st8" d="M122.5,157v6.6c0,2.8,9.7,5,21.6,5c11.9,0,21.6-2.2,21.6-5V157"/>
<path class="st9" d="M144.1,158.5c4.6,0,8.3-0.7,8.3-1.7c0-0.9-3.7-1.7-8.3-1.7c-4.6,0-8.3,0.7-8.3,1.7
	C135.9,157.7,139.6,158.5,144.1,158.5z"/>
<path class="st6" d="M127.9,146.9c0,0,2.8,5.8,21.9,5.2c19.1-0.6,21.3-4.3,21.3-5.5c0-1.2-8.7-5.2-20.2-5
	C139.3,141.8,128.4,143.1,127.9,146.9L127.9,146.9z"/>
<path class="st7" d="M128.2,148v6.4c0,0,8,4.3,22.3,4.3c14.3,0,20.7-4.6,20.7-4.6v-6.4c0,0-6.6,5-21.4,4.4
	C135,151.5,130,149.1,128.2,148L128.2,148z"/>
<path class="st8" d="M149.7,151.9c11.9,0,21.6-2.2,21.6-5c0-2.8-9.7-5-21.6-5c-11.9,0-21.6,2.2-21.6,5
	C128.1,149.6,137.7,151.9,149.7,151.9z"/>
<path class="st8" d="M128.1,146.8v6.6c0,2.8,9.7,5,21.6,5c11.9,0,21.6-2.2,21.6-5v-6.6"/>
<path class="st9" d="M149.8,148.3c4.6,0,8.3-0.7,8.3-1.7s-3.7-1.7-8.3-1.7c-4.6,0-8.3,0.7-8.3,1.7S145.2,148.3,149.8,148.3z"/>
<path class="st6" d="M122.1,137.7c0,0,2.8,5.8,21.9,5.2c19.1-0.6,21.3-4.3,21.3-5.5c0-1.2-8.7-5.2-20.2-5
	C133.5,132.5,122.5,133.9,122.1,137.7L122.1,137.7z"/>
<path class="st7" d="M122.4,138.7v6.4c0,0,8,4.3,22.3,4.3c14.3,0,20.7-4.6,20.7-4.6v-6.4c0,0-6.6,5-21.4,4.4
	C129.2,142.3,124.1,139.9,122.4,138.7z"/>
<path class="st8" d="M143.8,142.6c11.9,0,21.6-2.2,21.6-5c0-2.8-9.7-5-21.6-5c-11.9,0-21.6,2.2-21.6,5
	C122.2,140.4,131.9,142.6,143.8,142.6z"/>
<path class="st8" d="M122.2,137.6v6.6c0,2.8,9.7,5,21.6,5c11.9,0,21.6-2.2,21.6-5v-6.6"/>
<path class="st9" d="M143.9,139.1c4.6,0,8.3-0.7,8.3-1.7s-3.7-1.7-8.3-1.7c-4.6,0-8.3,0.7-8.3,1.7S139.3,139.1,143.9,139.1z"/>
<path class="st6" d="M127.7,127.5c0,0,2.8,5.8,21.9,5.2c19.1-0.6,21.3-4.3,21.3-5.5c0-1.2-8.7-5.2-20.2-5
	C139.1,122.4,128.2,123.7,127.7,127.5L127.7,127.5z"/>
<path class="st10" d="M129.3,125.8c1.8,1.3,4.3,1.4,6.5,1.1c2.2-0.3,4.4-1.1,6.6-1.4c2.6-0.3,5.2,0,7.8,0c1.1,0,2.1-0.1,3.1-0.5
	c0.9-0.5,1.7-1.5,1.5-2.5c0,0-7.9-0.3-13.9,0.2C135,123,129.3,125.8,129.3,125.8L129.3,125.8z"/>
<path class="st7" d="M128,128.6v6.4c0,0,8,4.3,22.3,4.3c14.3,0,20.7-4.6,20.7-4.6v-6.4c0,0-6.6,5-21.4,4.4
	C134.8,132.1,129.8,129.7,128,128.6L128,128.6z"/>
<path class="st8" d="M149.5,132.5c11.9,0,21.6-2.2,21.6-5c0-2.8-9.7-5-21.6-5c-11.9,0-21.6,2.2-21.6,5
	C127.9,130.2,137.5,132.5,149.5,132.5z"/>
<path class="st8" d="M127.9,127.4v6.6c0,2.8,9.7,5,21.6,5c11.9,0,21.6-2.2,21.6-5v-6.6"/>
<path class="st9" d="M149.6,128.9c4.6,0,8.3-0.7,8.3-1.7c0-0.9-3.7-1.7-8.3-1.7c-4.6,0-8.3,0.7-8.3,1.7
	C141.3,128.2,145,128.9,149.6,128.9z"/>
</svg>
